HIERARCHY
ROOT hip
{
	OFFSET 0.000000 0.000000 0.000000 
	CHANNELS 6 Xposition Yposition Zposition Xrotation Zrotation Yrotation
	JOINT abdomen
	{
		OFFSET 0.000000 3.402643 0.000000 
		CHANNELS 3 Xrotation Zrotation Yrotation
		JOINT chest
		{
			OFFSET 0.000000 8.438565 -0.680529 
			CHANNELS 3 Xrotation Zrotation Yrotation
			JOINT neck
			{
				OFFSET 0.000000 10.207942 -0.272212 
				CHANNELS 3 Xrotation Zrotation Yrotation
				JOINT head
				{
					OFFSET 0.000000 3.130431 0.000000 
					CHANNELS 3 Xrotation Zrotation Yrotation
					End Site
					{
						OFFSET 0.000000 3.130435 0.000000 
					}
				}
			}
			JOINT lCollar
			{
				OFFSET 3.470700 6.669187 -0.816635 
				CHANNELS 3 Yrotation Zrotation Xrotation
				JOINT lShldr
				{
					OFFSET 3.198488 0.000000 0.000000 
					CHANNELS 3 Zrotation Yrotation Xrotation
					JOINT lForeArm
					{
						OFFSET 10.139888 0.000000 0.000000 
						CHANNELS 3 Yrotation Zrotation Xrotation
						JOINT lHand
						{
							OFFSET 8.370511 0.000000 0.000000 
							CHANNELS 3 Zrotation Yrotation Xrotation
							End Site
							{
								OFFSET 4.083176 0.000000 0.000000 
							}
						}
					}
				}
			}
			JOINT rCollar
			{
				OFFSET -3.470700 6.669187 -0.816635 
				CHANNELS 3 Yrotation Zrotation Xrotation
				JOINT rShldr
				{
					OFFSET -3.198488 0.000000 0.000000 
					CHANNELS 3 Zrotation Yrotation Xrotation
					JOINT rForeArm
					{
						OFFSET -10.139888 0.000000 0.000000 
						CHANNELS 3 Yrotation Zrotation Xrotation
						JOINT rHand
						{
							OFFSET -8.370511 0.000000 0.000000 
							CHANNELS 3 Zrotation Yrotation Xrotation
							End Site
							{
								OFFSET -4.083176 0.000000 0.000000 
							}
						}
					}
				}
			}
		}
	}
	JOINT lThigh
	{
		OFFSET 5.308129 -1.633274 1.361059 
		CHANNELS 3 Xrotation Zrotation Yrotation
		JOINT lShin
		{
			OFFSET -2.041588 -20.007561 0.000000 
			CHANNELS 3 Xrotation Zrotation Yrotation
			JOINT lFoot
			{
				OFFSET 0.000000 -19.190928 -1.224953 
				CHANNELS 3 Xrotation Yrotation Zrotation
				End Site
				{
					OFFSET 0.000000 -2.449906 4.627600 
				}
			}
		}
	}
	JOINT rThigh
	{
		OFFSET -5.308129 -1.633274 1.361059 
		CHANNELS 3 Xrotation Zrotation Yrotation
		JOINT rShin
		{
			OFFSET 2.041588 -20.007561 0.000000 
			CHANNELS 3 Xrotation Zrotation Yrotation
			JOINT rFoot
			{
				OFFSET 0.000000 -19.190928 -1.224953 
				CHANNELS 3 Xrotation Yrotation Zrotation
				End Site
				{
					OFFSET 0.000000 -2.449906 4.627600 
				}
			}
		}
	}
}
MOTION
Frames: 16
Frame Time: 0.011111
-0.054132 52.724869 12.661921 -3.435547 0.608223 -6.464045 24.268085 -3.120697 -0.953230 -22.209648 0.262975 -0.051948 -13.070201 -9.497529 -6.484917 21.629072 14.356033 -13.360638 2.424333 -4.683778 1.783845 -66.935448 -27.957388 11.785190 -45.052971 6.395116 6.218976 8.524705 12.647240 -55.306042 -2.738486 -1.140572 2.095526 62.809380 38.435856 27.191582 86.145714 -1.312614 29.285591 -8.534408 -12.637552 58.275249 12.929054 7.431211 -4.374753 7.235015 -6.004822 -1.734216 -23.369099 14.367955 2.793654 1.502686 -25.490870 -5.182185 -0.117497 5.940332 0.662490 -4.980327 0.514062 3.236634 
-0.053831 52.717953 12.659213 -3.445727 0.630728 -6.397084 24.287579 -3.120518 -1.007542 -22.229200 0.272213 -0.062287 -13.119061 -9.489629 -6.418277 21.707792 14.365553 -13.234120 2.424333 -4.683778 1.783845 -66.924973 -27.928247 11.863051 -45.073193 6.399257 6.228622 8.524705 12.647240 -55.188854 -2.738486 -1.140572 2.095526 62.787205 38.348267 27.181170 86.154442 -1.296314 29.325930 -8.534408 -12.637552 58.324070 12.926967 7.429976 -4.434188 7.222620 -6.004751 -1.723622 -23.291508 14.391123 2.776546 1.502687 -25.490870 -5.182185 -0.117494 5.940331 0.662490 -4.994063 0.503997 3.232585 
-0.056537 52.720657 12.641170 -3.465467 0.631502 -6.348561 24.365501 -3.108289 -1.039528 -22.268326 0.300924 -0.073737 -13.169154 -9.514538 -6.364105 21.796299 14.431281 -13.117690 2.424333 -4.683778 1.783845 -66.935265 -27.947626 11.873081 -45.052971 6.395116 6.218976 8.524705 12.647240 -55.208385 -2.738486 -1.140572 2.095526 62.765926 38.299732 27.141457 86.161545 -1.290258 29.375172 -8.534408 -12.637552 58.402203 12.851546 7.441314 -4.491410 7.372797 -6.005792 -1.756341 -23.351908 14.339170 2.774376 1.502688 -25.490870 -5.182185 -0.117499 5.940332 0.662490 -4.982370 0.504171 3.243108 
-0.059845 52.726669 12.618615 -3.475318 0.651101 -6.330355 24.483557 -3.132104 -1.058944 -22.346535 0.339831 -0.076215 -13.249422 -9.557000 -6.280715 21.966198 14.538100 -12.945567 2.424333 -4.683778 1.783845 -66.964828 -27.937416 11.903168 -45.083687 6.404774 6.236882 8.524705 12.647240 -55.169323 -2.738486 -1.140572 2.095526 62.754734 38.251053 27.063005 86.167427 -1.283447 29.414917 -8.534408 -12.637552 58.519386 12.775137 7.436077 -4.520223 7.490044 -6.015674 -1.777133 -23.438412 14.180444 2.776258 1.502690 -25.490866 -5.182183 -0.117495 5.940330 0.662490 -4.982768 0.507059 3.233726 
-0.060447 52.723969 12.613503 -3.485111 0.679861 -6.322495 24.513941 -3.172633 -1.036592 -22.336813 0.359863 -0.067435 -13.358949 -9.594963 -6.203187 22.124846 14.606187 -12.789235 2.424333 -4.683778 1.783845 -66.975296 -27.966562 11.991322 -45.134857 6.417933 6.254716 8.524705 12.647240 -55.071667 -2.738486 -1.140572 2.095526 62.744659 38.251198 26.955259 86.171494 -1.285625 29.444082 -8.534408 -12.637552 58.558456 12.693699 7.420003 -4.542998 7.676479 -6.016217 -1.785210 -23.577953 14.072726 2.795131 1.502687 -25.490864 -5.182184 -0.117495 5.940330 0.662490 -4.991137 0.508412 3.245075 
-0.064055 52.721260 12.607788 -3.485011 0.630530 -6.329282 24.552116 -3.128390 -0.988594 -22.356344 0.360359 -0.057806 -13.464858 -9.544429 -6.176465 22.315659 14.521357 -12.741691 2.424333 -4.683778 1.783845 -66.975868 -27.995853 12.020616 -45.156078 6.428331 6.261514 8.524705 12.647240 -55.071667 -2.738486 -1.140572 2.095526 62.734138 38.231812 26.909826 86.175209 -1.277366 29.464375 -8.534408 -12.637552 58.568218 12.516682 7.458368 -4.534539 7.959301 -6.015790 -1.830298 -23.640886 14.057611 2.805014 1.502685 -25.490864 -5.182185 -0.117498 5.940332 0.662490 -4.989893 0.515979 3.237622 
-0.069168 52.722164 12.590947 -3.475173 0.523790 -6.332426 24.617891 -3.010096 -0.942415 -22.454002 0.360260 -0.058420 -13.481820 -9.477691 -6.178844 22.441360 14.354109 -12.738198 2.424333 -4.683778 1.783845 -66.965012 -27.947184 12.039886 -45.156078 6.428331 6.261514 8.524705 12.647240 -55.091198 -2.738486 -1.140572 2.095526 62.692276 38.164028 26.928066 86.179062 -1.279504 29.493546 -8.534408 -12.637552 58.714703 12.343830 7.567680 -4.513473 8.222010 -6.005065 -1.862316 -23.722946 13.981087 2.803319 1.502688 -25.490864 -5.182184 -0.117495 5.940330 0.662490 -4.983060 0.502202 3.242259 
-0.075784 52.722763 12.571100 -3.455894 0.400988 -6.295371 24.673761 -2.884988 -0.913878 -22.493044 0.350470 -0.058124 -13.500309 -9.448936 -6.172279 22.492352 14.284827 -12.709934 2.424333 -4.683778 1.783845 -66.945183 -27.947479 12.097951 -45.187031 6.437327 6.270812 8.524705 12.647240 -55.042370 -2.738486 -1.140572 2.095526 62.672134 38.164314 26.927423 86.184189 -1.272576 29.533304 -8.534408 -12.637552 58.919781 12.192942 7.711473 -4.508428 8.408278 -5.996138 -1.899096 -23.799879 13.932999 2.817733 1.502687 -25.490862 -5.182184 -0.117495 5.940330 0.662490 -4.993570 0.505414 3.233196 
-0.078190 52.722462 12.568092 -3.446441 0.394659 -6.255724 24.663239 -2.856832 -0.932934 -22.434427 0.340246 -0.066985 -13.606897 -9.415051 -6.131956 22.634789 14.246561 -12.649136 2.424333 -4.683778 1.783845 -66.915619 -27.957685 12.194816 -45.247929 6.448999 6.290109 8.524705 12.647240 -54.905651 -2.738486 -1.140572 2.095526 62.663845 38.242569 26.888041 86.187614 -1.274026 29.552736 -8.534408 -12.637552 59.144390 12.134809 7.730956 -4.534568 8.481720 -5.993392 -1.914778 -23.769175 13.951404 2.811761 1.502689 -25.490870 -5.182185 -0.117492 5.940329 0.662490 -4.984482 0.502121 3.231616 
-0.073378 52.719154 12.582528 -3.437045 0.515041 -6.223672 24.597044 -2.965897 -1.028849 -22.366108 0.358787 -0.087123 -13.653972 -9.363420 -6.095873 22.779863 14.185839 -12.553797 2.424333 -4.683778 1.783845 -66.895226 -27.928686 12.213824 -45.299896 6.468889 6.314936 8.524705 12.647240 -54.866589 -2.738486 -1.140572 2.095526 62.635620 38.330868 26.906603 86.188538 -1.274709 29.562469 -8.534408 -12.637552 59.290878 12.136998 7.605849 -4.605574 8.518817 -5.991858 -1.908503 -23.777817 13.915933 2.790431 1.502688 -25.490864 -5.182184 -0.117496 5.940331 0.662490 -4.983005 0.502358 3.242328 
-0.072175 52.718555 12.582227 -3.466241 0.628838 -6.231000 24.629339 -3.090185 -1.086355 -22.336920 0.407591 -0.089515 -13.652272 -9.318640 -6.078061 22.831125 14.102427 -12.513440 2.424333 -4.683778 1.783845 -66.895409 -27.938452 12.184525 -45.351082 6.481863 6.332900 8.524705 12.647240 -54.905651 -2.738486 -1.140572 2.095526 62.537983 38.468983 26.981506 86.187439 -1.274017 29.552740 -8.534408 -12.637552 59.378769 12.242781 7.478129 -4.637717 8.411347 -5.991774 -1.898798 -23.771336 13.863412 2.768239 1.502688 -25.490864 -5.182184 -0.117496 5.940331 0.662490 -4.982575 0.507606 3.233967 
-0.073378 52.721561 12.570498 -3.475514 0.652877 -6.301113 24.709084 -3.145596 -1.053401 -22.356520 0.437855 -0.071706 -13.730050 -9.304825 -6.098387 22.973053 14.005294 -12.553524 2.424333 -4.683778 1.783845 -66.905708 -27.957832 12.204319 -45.372108 6.492769 6.350620 8.524705 12.647240 -54.895882 -2.738486 -1.140572 2.095526 62.389481 38.588257 27.074337 86.185066 -1.272622 29.533291 -8.534408 -12.637552 59.525249 12.330113 7.447949 -4.574125 8.281609 -6.006047 -1.868676 -23.751539 13.874985 2.784194 1.502687 -25.490870 -5.182185 -0.117494 5.940331 0.662490 -4.983022 0.506332 3.233416 
-0.073078 52.723366 12.565084 -3.455701 0.641741 -6.358788 24.718992 -3.145142 -1.001198 -22.356543 0.448125 -0.062473 -13.730870 -9.326085 -6.101727 23.029589 13.983077 -12.572608 2.424333 -4.683778 1.783845 -66.915985 -27.977215 12.145989 -45.320126 6.472952 6.324636 8.524705 12.647240 -55.003307 -2.738486 -1.140572 2.095526 62.272514 38.765686 27.109549 86.179420 -1.279524 29.493536 -8.534408 -12.637552 59.730324 12.331768 7.448978 -4.524603 8.252106 -5.996434 -1.875256 -23.721878 13.891585 2.779359 1.502689 -25.490868 -5.182184 -0.117497 5.940331 0.662490 -4.982305 0.504364 3.243186 
-0.074581 52.723366 12.551852 -3.464951 0.646276 -6.427720 24.778397 -3.167212 -0.919648 -22.356544 0.449683 -0.033218 -13.682738 -9.347374 -6.094778 22.950808 14.003704 -12.569845 2.424333 -4.683778 1.783845 -66.907379 -28.045712 12.067597 -45.259220 6.461351 6.305291 8.524705 12.647240 -55.110729 -2.738486 -1.140572 2.095526 62.209713 39.108402 27.074404 86.170731 -1.284939 29.434351 -8.534408 -12.637552 59.935402 12.312318 7.429710 -4.448358 8.300444 -5.995862 -1.888363 -23.722004 13.851164 2.753068 1.502686 -25.490864 -5.182185 -0.117498 5.940331 0.662490 -4.990094 0.515419 3.237376 
-0.073679 52.725170 12.529599 -3.464336 0.621470 -6.514272 24.876568 -3.174170 -0.822854 -22.376055 0.441487 -0.003594 -13.693023 -9.360120 -6.100113 22.950689 14.016477 -12.575092 2.424333 -4.683778 1.783845 -66.879494 -28.143797 12.066804 -45.217758 6.446911 6.288772 8.524705 12.647240 -55.071667 -2.738486 -1.140572 2.095526 62.136841 39.451252 27.013279 86.163429 -1.291667 29.394850 -8.534408 -12.637552 60.267437 12.239064 7.427241 -4.358130 8.377118 -6.006662 -1.886287 -23.737913 13.839006 2.757498 1.502686 -25.490868 -5.182185 -0.117496 5.940332 0.662490 -4.989069 0.514316 3.247524 
-0.068868 52.728180 12.515766 -3.434793 0.572543 -6.569520 24.894808 -3.120857 -0.745647 -22.385731 0.403004 0.008177 -13.723375 -9.384313 -6.099386 23.057867 14.083114 -12.577225 2.424333 -4.683778 1.783845 -66.841118 -28.212734 12.055981 -45.176304 6.432438 6.272278 8.524705 12.647240 -55.071667 -2.738486 -1.140572 2.095526 61.980988 39.697559 27.057014 86.158974 -1.299206 29.364828 -8.534408 -12.637552 60.775249 12.170087 7.455381 -4.283204 8.422449 -5.992673 -1.909454 -23.720985 13.829081 2.750227 1.502685 -25.490868 -5.182185 -0.117496 5.940331 0.662490 -4.981786 0.509876 3.234931 
